<!-- public/favicon.svg -->
<svg xmlns="http://www.w3.org/2000/svg" viewBox="0 0 256 256" role="img" aria-label="GamepadChecker logo">
<defs>
<style>
:root { --icon: #6E879C; /* bluish gray from screenshot */ }
.fg { fill: var(--icon); }
.knock { fill: #ffffff; }
</style>
</defs>
<!-- Chat bubble base -->
<path class="fg" d="M52 36h152c17.7 0 32 14.3 32 32v74c0 17.7-14.3 32-32 32H104l-36.6 27.6c-9.4 7.1-23.4 .2-23.4-11.6V170H52c-17.7 0-32-14.3-32-32V68c0-17.7 14.3-32 32-32Z"/>
<!-- Gamepad: d‑pad + two buttons (knocked out) -->
<g transform="translate(0,4)">
<!-- d‑pad -->
<path class="knock" d="M106 104c0-4.4 3.6-8 8-8h8V88c0-4.4 3.6-8 8-8s8 3.6 8 8v8h8c4.4 0 8 3.6 8 8s-3.6 8-8 8h-8v8c0 4.4-3.6 8-8 8s-8-3.6-8-8v-8h-8c-4.4 0-8-3.6-8-8Z"/>
<!-- face buttons -->
<circle class="knock" cx="172" cy="102" r="10"/>
<circle class="knock" cx="188" cy="126" r="10"/>
</g>
</svg>
